<?xml version="1.0" encoding="iso-8859-1"?>
<!-- Uploaded to: SVG Repo, www.svgrepo.com, Generator: SVG Repo Mixer Tools -->
<svg fill="#000000" height="800px" width="800px" version="1.1" id="Layer_1" xmlns="http://www.w3.org/2000/svg" xmlns:xlink="http://www.w3.org/1999/xlink" 
	 viewBox="0 0 511.999 511.999" xml:space="preserve">
<g>
	<g>
		<path d="M230.888,135.435c-1.309-1.642-3.585-2.148-5.466-1.218c-41.207,20.363-29.399,49.267-16.797,66.405
			c1.227,1.669,3.445,2.271,5.35,1.456c1.905-0.814,3-2.831,2.644-4.872c-4.505-25.795,4.663-44.399,14.245-56.169
			C232.188,139.409,232.197,137.075,230.888,135.435z"/>
	</g>
</g>
<g>
	<g>
		<path d="M506.085,396.08h-22.031V244.06c0-126.352-102.796-229.148-229.148-229.148S25.758,117.708,25.758,244.06v152.02H5.914
			c-3.266,0-5.914,2.648-5.914,5.914v39.233c0,3.266,2.648,5.914,5.914,5.914h111.575v44.03c0,3.266,2.648,5.914,5.914,5.914
			h262.093c3.266,0,5.914-2.648,5.914-5.914v-44.03h114.674c3.266,0,5.914-2.648,5.914-5.914v-39.233
			C512,398.728,509.352,396.08,506.085,396.08z M276.028,367.9l-9.414,3.12l-19.304-4.105
			c12.573-22.712,16.191-44.271,16.987-58.499c0.082-1.452,1.188-2.639,2.631-2.822c1.443-0.183,2.81,0.69,3.252,2.076
			C277.164,329.591,278.07,350.083,276.028,367.9z M405.81,396.079h-72.671l42.79-14.177c1.489-0.493,2.721-1.558,3.425-2.96
			s0.823-3.026,0.329-4.515l-10.343-31.213c-1.027-3.101-4.374-4.781-7.475-3.754l-33.782,11.191
			c1.49-2.697,2.889-5.548,4.151-8.599c17.885-43.222-6.81-105.178-6.81-105.178c-0.442-1.386-1.81-2.259-3.252-2.076
			c-1.442,0.183-2.55,1.37-2.631,2.822c-0.577,10.307-2.632,24.463-8.497,40.115c-10.465-30.929-31.841-63.97-68.778-86.009
			c-1.247-0.744-2.8-0.75-4.05-0.009s-1.993,2.107-1.936,3.559c1.392,35.817-61.295,78.484-61.295,128.702
			c0,10.254,2.147,20.003,6.007,28.832l-33.764-7.178c-3.195-0.68-6.336,1.36-7.015,4.555l-6.839,32.163
			c-0.68,3.195,1.36,6.336,4.555,7.015l31.563,6.711h-65.487v-152.02c0-83.207,67.695-150.902,150.902-150.902
			S405.81,160.852,405.81,244.059V396.079z"/>
	</g>
</g>
</svg>